<?xml version="1.0" encoding="UTF-8" standalone="no"?>
<svg width="242px" height="211px" viewBox="0 0 242 211" version="1.1" xmlns="http://www.w3.org/2000/svg" xmlns:xlink="http://www.w3.org/1999/xlink">
    <!-- Generator: Sketch 3.6.1 (26313) - http://www.bohemiancoding.com/sketch -->
    <title>Blue Whale Logo</title>
    <desc>Created with Sketch.</desc>
    <defs>
        <path id="path-1" d="M241.834411,0.269 L0.376,0.269 L0.376,210.77 L241.834411,210.77 L241.834411,0.269 L241.834411,0.269 Z"></path>
    </defs>
    <g id="Page-1" stroke="none" stroke-width="1" fill="none" fill-rule="evenodd">
        <g id="Group">
            <g id="Blue-Whale-Logo">
                <g id="Group-3">
                    <mask id="mask-2" fill="white">
                        <use xlink:href="#path-1"></use>
                    </mask>
                    <g id="Clip-2"></g>
                    <path d="M235.686,7.153 C235.459,15.21 232.248,22.831 226.643,28.611 C222.179,33.215 216.516,36.348 210.266,37.673 C209.304,37.877 208.498,38.53 208.099,39.429 C207.7,40.328 207.756,41.363 208.251,42.214 C217.793,58.634 222.837,77.397 222.837,96.474 C222.837,143.636 191.483,186.036 146.495,199.87 C100.555,189.993 65.685,150.554 61.587,103.683 C61.466,102.304 61.379,100.921 61.31,99.541 L197.289,99.541 C198.573,99.541 199.722,98.74 200.167,97.535 C203.38,88.819 205.009,79.657 205.009,70.301 C205.009,61.014 203.406,51.921 200.244,43.273 C199.954,42.48 199.351,41.84 198.573,41.507 C197.799,41.176 196.919,41.178 196.142,41.513 C189.685,44.319 182.507,44.925 175.652,43.231 C167.582,41.235 160.63,36.188 156.21,29.21 C161.089,26.398 166.566,24.925 172.21,24.925 C174.801,24.925 177.404,25.244 179.945,25.871 C181.875,26.348 183.803,27.028 185.678,27.889 C191.161,30.408 195.808,34.416 199.119,39.478 C199.854,40.604 201.241,41.117 202.53,40.747 C203.823,40.377 204.724,39.207 204.751,37.863 C204.809,35.125 205.219,32.392 205.969,29.741 C207.407,24.663 210.116,19.967 213.805,16.165 C219.17,10.63 226.359,7.211 234.052,6.535 C234.606,6.487 235.157,6.451 235.699,6.429 C235.697,6.67 235.693,6.911 235.686,7.153 L235.686,7.153 Z M114.674,204.636 C110.547,204.636 106.48,204.379 102.472,203.927 C68.614,182.112 45.332,145.352 41.703,103.851 C41.578,102.415 41.477,100.975 41.398,99.541 L55.162,99.541 C55.236,101.097 55.34,102.662 55.477,104.218 C57.637,128.922 67.539,151.774 84.115,170.308 C97.79,185.598 114.881,196.717 134.058,202.899 C127.683,204.054 121.201,204.636 114.674,204.636 L114.674,204.636 Z M53.943,185.897 C36.04,162.647 24.476,134.411 21.819,104.019 C21.688,102.525 21.59,101.031 21.502,99.541 L35.255,99.541 C35.341,101.152 35.452,102.771 35.593,104.385 C38.217,134.405 50.251,162.177 70.394,184.698 C75.859,190.809 81.787,196.349 88.091,201.331 C75.72,198.193 64.207,192.897 53.943,185.897 L53.943,185.897 Z M6.553,99.541 L15.353,99.541 C15.449,101.208 15.563,102.881 15.709,104.553 C17.784,128.297 24.884,150.836 36.498,171.119 C18.597,152.381 7.329,127.255 6.553,99.541 L6.553,99.541 Z M3.443,93.407 C1.749,93.407 0.376,94.78 0.376,96.474 C0.376,159.497 51.65,210.77 114.674,210.77 C125.828,210.77 136.868,209.158 147.486,205.981 C170.556,199.078 191.302,184.643 205.902,165.335 C220.993,145.376 228.971,121.563 228.971,96.474 C228.971,77.651 224.323,59.115 215.494,42.612 C221.372,40.692 226.69,37.375 231.047,32.881 C237.722,25.996 241.547,16.919 241.818,7.328 C241.859,5.911 241.823,4.498 241.712,3.129 C241.588,1.595 240.345,0.391 238.808,0.313 C237.075,0.228 235.318,0.266 233.515,0.425 C224.355,1.229 215.792,5.303 209.401,11.895 C205.009,16.424 201.781,22.017 200.067,28.07 C199.863,28.789 199.681,29.512 199.52,30.241 C196.286,26.948 192.471,24.26 188.24,22.316 C186.016,21.294 183.721,20.486 181.417,19.917 C178.394,19.169 175.296,18.791 172.21,18.791 C164.376,18.791 156.814,21.171 150.342,25.676 C149.078,26.555 148.662,28.236 149.37,29.603 C154.444,39.403 163.487,46.54 174.18,49.185 C181.256,50.936 188.672,50.624 195.49,48.33 C197.738,55.409 198.875,62.786 198.875,70.301 C198.875,78.214 197.612,85.977 195.118,93.407 L3.443,93.407 L3.443,93.407 Z" id="Fill-1" fill="#242C2F" mask="url(#mask-2)"></path>
                </g>
                <path d="M235.699,6.429 C235.157,6.451 234.606,6.487 234.052,6.535 C226.359,7.211 219.17,10.63 213.805,16.165 C210.116,19.967 207.407,24.663 205.969,29.741 C205.219,32.392 204.809,35.125 204.751,37.863 C204.724,39.207 203.823,40.377 202.53,40.747 C201.241,41.117 199.854,40.604 199.119,39.478 C195.808,34.416 191.161,30.408 185.678,27.889 C183.803,27.028 181.875,26.348 179.945,25.871 C177.404,25.244 174.801,24.925 172.21,24.925 C166.566,24.925 161.089,26.398 156.21,29.21 C160.63,36.188 167.582,41.235 175.652,43.231 C182.507,44.925 189.685,44.319 196.142,41.513 C196.919,41.178 197.799,41.176 198.573,41.507 C199.351,41.84 199.954,42.48 200.244,43.273 C203.406,51.921 205.009,61.014 205.009,70.301 C205.009,79.657 203.38,88.819 200.167,97.535 C199.722,98.74 198.573,99.541 197.289,99.541 L61.31,99.541 C61.379,100.921 61.466,102.304 61.587,103.683 C65.685,150.554 100.555,189.993 146.495,199.87 C191.483,186.036 222.837,143.636 222.837,96.474 C222.837,77.397 217.793,58.634 208.251,42.214 C207.756,41.363 207.7,40.328 208.099,39.429 C208.498,38.53 209.304,37.877 210.266,37.673 C216.516,36.348 222.179,33.215 226.643,28.611 C232.248,22.831 235.459,15.21 235.686,7.153 C235.693,6.911 235.697,6.67 235.699,6.429" id="Fill-5" fill="#2E978F"></path>
                <path d="M111.097,153.111 C111.097,157.278 107.828,160.657 103.796,160.657 C99.764,160.657 96.495,157.278 96.495,153.111 C96.495,148.943 99.764,145.564 103.796,145.564 C107.828,145.564 111.097,148.943 111.097,153.111" id="Fill-6" fill="#262B2F"></path>
                <path d="M35.954,55.862 C35.954,46.038 27.989,38.073 18.165,38.073 C8.341,38.073 0.376,46.038 0.376,55.862 C0.376,65.686 8.341,73.651 18.165,73.651 C27.989,73.651 35.954,65.686 35.954,55.862" id="Fill-7" fill="#D4E9D2"></path>
                <path d="M56.4,25.805 C56.4,20.159 51.823,15.582 46.177,15.582 C40.531,15.582 35.954,20.159 35.954,25.805 C35.954,31.452 40.531,36.029 46.177,36.029 C51.823,36.029 56.4,31.452 56.4,25.805" id="Fill-8" fill="#D4E9D2"></path>
                <path d="M24.81,6.914 C24.81,3.244 21.835,0.269 18.165,0.269 C14.495,0.269 11.52,3.244 11.52,6.914 C11.52,10.584 14.495,13.559 18.165,13.559 C21.835,13.559 24.81,10.584 24.81,6.914" id="Fill-9" fill="#D4E9D2"></path>
                <path d="M84.115,170.308 C67.539,151.774 57.637,128.922 55.477,104.218 C55.34,102.662 55.236,101.097 55.162,99.541 L41.398,99.541 C41.477,100.975 41.578,102.415 41.703,103.851 C45.332,145.352 68.614,182.112 102.472,203.927 C106.48,204.379 110.547,204.636 114.674,204.636 C121.201,204.636 127.683,204.054 134.058,202.899 C114.881,196.717 97.79,185.598 84.115,170.308" id="Fill-10" fill="#D4E9D2"></path>
                <path d="M88.091,201.331 C81.787,196.349 75.859,190.809 70.394,184.698 C50.251,162.177 38.217,134.405 35.593,104.385 C35.452,102.771 35.341,101.152 35.255,99.541 L21.502,99.541 C21.59,101.031 21.688,102.525 21.819,104.019 C24.476,134.411 36.04,162.647 53.943,185.897 C64.207,192.897 75.72,198.193 88.091,201.331" id="Fill-11" fill="#D4E9D2"></path>
                <path d="M15.709,104.553 C15.563,102.881 15.449,101.208 15.353,99.541 L6.553,99.541 C7.329,127.255 18.597,152.381 36.498,171.119 C24.884,150.836 17.784,128.297 15.709,104.553" id="Fill-12" fill="#D4E9D2"></path>
            </g>
        </g>
    </g>
</svg>